<?xml version="1.0" standalone="no"?>
<!DOCTYPE svg PUBLIC "-//W3C//DTD SVG 20010904//EN"
 "http://www.w3.org/TR/2001/REC-SVG-20010904/DTD/svg10.dtd">
<svg version="1.0" xmlns="http://www.w3.org/2000/svg"
 width="260.000000pt" height="260.000000pt" viewBox="0 0 260.000000 260.000000"
 preserveAspectRatio="xMidYMid meet">
<metadata>
Created by potrace 1.11, written by Peter Selinger 2001-2013
</metadata>
<g transform="translate(0.000000,260.000000) scale(0.100000,-0.100000)"
fill="#000000" stroke="none">
<path d="M1140 2315 c-157 -29 -303 -94 -435 -192 -189 -140 -331 -361 -392
-608 -25 -101 -25 -352 1 -459 126 -541 641 -893 1170 -801 374 65 680 329
806 695 69 202 69 468 0 670 -56 163 -131 282 -254 406 -143 142 -286 225
-479 275 -105 28 -309 35 -417 14z"/>
</g>
</svg>
