<?xml version="1.0" encoding="UTF-8"?>
<svg width="8px" height="48px" viewBox="0 0 8 48" version="1.1" xmlns="http://www.w3.org/2000/svg" xmlns:xlink="http://www.w3.org/1999/xlink">
    <!-- Generator: Sketch 43.1 (39012) - http://www.bohemiancoding.com/sketch -->
    <title>10lbs-Plate</title>
    <desc>Created with Sketch.</desc>
    <defs></defs>
    <g id="Page-1" stroke="none" stroke-width="1" fill="none" fill-rule="evenodd">
        <g id="10lbs-Plate">
            <g id="Group" transform="translate(4.000000, 24.000000) scale(-1, 1) translate(-4.000000, -24.000000) ">
                <rect id="Rectangle-path" fill="#48484A" fill-rule="nonzero" x="0" y="0" width="8" height="48" rx="4"></rect>
                <g transform="translate(4.000000, 24.500000) scale(-1, 1) translate(-4.000000, -24.500000) translate(1.000000, 15.000000)" fill="#FFFFFF">
                    <path d="M1.14941425,2.04882812 L1.14941425,1.375 C1.78418305,1.31315073 2.22688696,1.2097989 2.47753925,1.06494141 C2.72819154,0.920083911 2.91536415,0.57747666 3.03906269,0.037109375 L3.73242206,0.037109375 L3.73242206,7 L2.79492206,7 L2.79492206,2.04882812 L1.14941425,2.04882812 Z" id="1"></path>
                    <path d="M2.89746112,11.0078125 C3.80241357,11.0078125 4.4567039,11.3805301 4.86035175,12.1259766 C5.17285331,12.7021513 5.32910175,13.4915314 5.32910175,14.4941406 C5.32910175,15.4446662 5.1875016,16.2307912 4.90429706,16.8525391 C4.49413876,17.7444706 3.82357255,18.1904297 2.89257831,18.1904297 C2.05273036,18.1904297 1.42773661,17.82585 1.01757831,17.0966797 C0.675779729,16.4879527 0.504883,15.6709036 0.504883,14.6455078 C0.504883,13.851233 0.607421037,13.1692737 0.812500187,12.5996094 C1.19661669,11.5384062 1.89159672,11.0078125 2.89746112,11.0078125 Z M2.8876955,17.3896484 C3.34342695,17.3896484 3.70637904,17.1878275 3.97656269,16.7841797 C4.24674633,16.3805318 4.38183612,15.6285862 4.38183612,14.5283203 C4.38183612,13.7340455 4.28418085,13.080569 4.08886737,12.5678711 C3.8935539,12.0551732 3.51432592,11.7988281 2.95117206,11.7988281 C2.43359135,11.7988281 2.05517717,12.0421525 1.81591816,12.5288086 C1.57665915,13.0154647 1.45703144,13.7324171 1.45703144,14.6796875 C1.45703144,15.3925817 1.53352807,15.9654926 1.68652362,16.3984375 C1.9208998,17.0592481 2.32128642,17.3896484 2.8876955,17.3896484 Z" id="0"></path>
                </g>
            </g>
        </g>
    </g>
</svg>