<?xml version="1.0" encoding="UTF-8"?>
<svg width="8px" height="32px" viewBox="0 0 8 32" version="1.1" xmlns="http://www.w3.org/2000/svg" xmlns:xlink="http://www.w3.org/1999/xlink">
    <!-- Generator: Sketch 43.1 (39012) - http://www.bohemiancoding.com/sketch -->
    <title>2halflbs-Plate</title>
    <desc>Created with Sketch.</desc>
    <defs></defs>
    <g id="Page-1" stroke="none" stroke-width="1" fill="none" fill-rule="evenodd">
        <g id="2halflbs-Plate">
            <g id="Group" transform="translate(4.000000, 16.000000) scale(-1, 1) translate(-4.000000, -16.000000) ">
                <rect id="Rectangle-path" fill="#48484A" fill-rule="nonzero" x="0" y="0" width="8" height="32" rx="4"></rect>
                <g transform="translate(4.000000, 15.000000) scale(-1, 1) translate(-4.000000, -15.000000) translate(1.000000, 3.000000)" fill="#FFFFFF">
                    <g id="2">
                        <path d="M0.3125,10 C0.345052246,9.39778345 0.46956272,8.87370015 0.686035156,8.42773438 C0.902507593,7.9817686 1.32486665,7.57649922 1.953125,7.21191406 L2.890625,6.66992188 C3.31054897,6.42578003 3.60514238,6.21744878 3.77441406,6.04492188 C4.04134248,5.77473823 4.17480469,5.46549653 4.17480469,5.1171875 C4.17480469,4.71028442 4.0527356,4.38720823 3.80859375,4.14794922 C3.5644519,3.90869021 3.23893433,3.7890625 2.83203125,3.7890625 C2.2298147,3.7890625 1.8131522,4.0169248 1.58203125,4.47265625 C1.45833271,4.7167981 1.38997402,5.05533638 1.37695312,5.48828125 L0.483398438,5.48828125 C0.493164111,4.87955425 0.605467676,4.38313994 0.8203125,3.99902344 C1.20117378,3.32193672 1.87336758,2.98339844 2.83691406,2.98339844 C3.63769932,2.98339844 4.22281716,3.19986763 4.59228516,3.6328125 C4.96175315,4.06575737 5.14648437,4.54752339 5.14648437,5.078125 C5.14648437,5.63802363 4.94954624,6.11653447 4.55566406,6.51367188 C4.32779834,6.74479282 3.91927378,7.02473794 3.33007812,7.35351562 L2.66113281,7.72460938 C2.3421208,7.9003915 2.09147227,8.06803306 1.90917969,8.22753906 C1.58365723,8.5107436 1.37858115,8.82486807 1.29394531,9.16992188 L5.11230469,9.16992188 L5.11230469,10 L0.3125,10 Z"></path>
                    </g>
                    <g transform="translate(1.000000, 3.000000)" id=".">
                        <polygon points="1.34619119 8.93554688 2.366699 8.93554688 2.366699 10 1.34619119 10"></polygon>
                    </g>
                    <g transform="translate(0.000000, 12.000000)" id="5">
                        <path d="M1.23535156,8.21777344 C1.29394561,8.71907803 1.52669067,9.06575425 1.93359375,9.2578125 C2.14192812,9.35546924 2.38281113,9.40429688 2.65625,9.40429688 C3.17708594,9.40429688 3.56282427,9.23828291 3.81347656,8.90625 C4.06412886,8.57421709 4.18945312,8.20638223 4.18945312,7.80273438 C4.18945312,7.31445068 4.04052883,6.93685029 3.74267578,6.66992188 C3.44482273,6.40299346 3.08756719,6.26953125 2.67089844,6.26953125 C2.36816255,6.26953125 2.10856228,6.32812441 1.89208984,6.4453125 C1.67561741,6.56250059 1.49088618,6.72525938 1.33789062,6.93359375 L0.576171875,6.88964844 L1.10839844,3.125 L4.74121094,3.125 L4.74121094,3.97460938 L1.76757812,3.97460938 L1.46972656,5.91796875 C1.63248779,5.79427021 1.78710864,5.70149771 1.93359375,5.63964844 C2.19401172,5.53222603 2.49511548,5.47851562 2.83691406,5.47851562 C3.47819331,5.47851562 4.02180767,5.68521929 4.46777344,6.09863281 C4.91373921,6.51204634 5.13671875,7.03612964 5.13671875,7.67089844 C5.13671875,8.33170903 4.93245647,8.9143855 4.52392578,9.41894531 C4.11539509,9.92350513 3.46354614,10.1757812 2.56835938,10.1757812 C1.99869507,10.1757812 1.49495662,10.0154638 1.05712891,9.69482422 C0.619301196,9.37418459 0.374349219,8.88183926 0.322265625,8.21777344 L1.23535156,8.21777344 Z"></path>
                    </g>
                </g>
            </g>
        </g>
    </g>
</svg>