<?xml version="1.0" encoding="UTF-8"?>
<svg width="8px" height="32px" viewBox="0 0 8 32" version="1.1" xmlns="http://www.w3.org/2000/svg" xmlns:xlink="http://www.w3.org/1999/xlink">
    <!-- Generator: Sketch 43.1 (39012) - http://www.bohemiancoding.com/sketch -->
    <title>2halflbs-Plate</title>
    <desc>Created with Sketch.</desc>
    <defs></defs>
    <g id="Page-1" stroke="none" stroke-width="1" fill="none" fill-rule="evenodd">
        <g id="2halflbs-Plate" fill-rule="nonzero">
            <g id="Group" transform="translate(4.000000, 16.000000) scale(-1, 1) translate(-4.000000, -16.000000) ">
                <rect id="Rectangle-path" fill="#008000" x="0" y="0" width="8" height="32" rx="4"></rect>
                <g transform="translate(4.000000, 16.000000) scale(-1, 1) translate(-4.000000, -16.000000) translate(1.000000, 6.000000)" id="Shape" fill="#FFFFFF">
                    <path d="M0.583007815,7.01660156 C0.615560061,6.41438501 0.740070535,5.89030171 0.956542971,5.44433594 C1.17301541,4.99837016 1.59537447,4.59310078 2.22363282,4.22851562 L3.16113281,3.68652344 C3.58105679,3.44238159 3.8756502,3.23405034 4.04492188,3.06152344 C4.3118503,2.79133979 4.44531251,2.48209809 4.44531251,2.13378906 C4.44531251,1.72688598 4.32324342,1.40380979 4.07910157,1.16455078 C3.83495972,0.92529177 3.50944215,0.80566406 3.10253907,0.80566406 C2.50032252,0.80566406 2.08366002,1.03352636 1.85253907,1.48925781 C1.72884053,1.73339966 1.66048184,2.07193794 1.64746094,2.50488281 L0.753906253,2.50488281 C0.763671926,1.89615581 0.875975491,1.3997415 1.09082032,1.015625 C1.4716816,0.33853828 2.1438754,0 3.10742188,0 C3.90820713,0 4.49332498,0.21646919 4.86279298,0.64941406 C5.23226097,1.08235893 5.41699218,1.56412495 5.41699218,2.09472656 C5.41699218,2.65462519 5.22005406,3.13313603 4.82617188,3.53027344 C4.59830616,3.76139438 4.1897816,4.0413395 3.60058594,4.37011718 L2.93164062,4.74121094 C2.61262862,4.91699306 2.36198009,5.08463462 2.17968751,5.24414062 C1.85416505,5.52734516 1.64908897,5.84146963 1.56445312,6.18652344 L5.38281251,6.18652344 L5.38281251,7.01660156 L0.583007815,7.01660156 Z"></path>
                    <polygon points="2.4897461 9 3.5102539 9 3.5102539 10.0644531 2.4897461 10.0644531"></polygon>
                    <path d="M1.50585937,17.0927734 C1.56445342,17.594078 1.79719848,17.9407542 2.20410156,18.1328125 C2.41243593,18.2304692 2.65331894,18.2792969 2.92675781,18.2792969 C3.44759375,18.2792969 3.83333208,18.1132829 4.08398437,17.78125 C4.33463667,17.4492171 4.45996093,17.0813822 4.45996093,16.6777344 C4.45996093,16.1894507 4.31103664,15.8118503 4.01318359,15.5449219 C3.71533054,15.2779935 3.358075,15.1445312 2.94140625,15.1445312 C2.63867036,15.1445312 2.37907009,15.2031244 2.16259765,15.3203125 C1.94612522,15.4375006 1.76139399,15.6002594 1.60839843,15.8085938 L0.846679688,15.7646484 L1.37890625,12 L5.01171875,12 L5.01171875,12.8496094 L2.03808593,12.8496094 L1.74023437,14.7929688 C1.9029956,14.6692702 2.05761645,14.5764977 2.20410156,14.5146484 C2.46451953,14.407226 2.76562329,14.3535156 3.10742187,14.3535156 C3.74870112,14.3535156 4.29231548,14.5602193 4.73828125,14.9736328 C5.18424702,15.3870463 5.40722656,15.9111296 5.40722656,16.5458984 C5.40722656,17.206709 5.20296428,17.7893855 4.79443359,18.2939453 C4.3859029,18.7985051 3.73405395,19.0507812 2.83886719,19.0507812 C2.26920288,19.0507812 1.76546443,18.8904638 1.32763672,18.5698242 C0.889809008,18.2491846 0.644857031,17.7568393 0.592773438,17.0927734 L1.50585937,17.0927734 Z"></path>
                </g>
            </g>
        </g>
    </g>
</svg>