<svg height="72" viewBox="0 0 8 72" width="8" xmlns="http://www.w3.org/2000/svg"><g fill="none" transform="matrix(-1 0 0 1 8 0)"><rect fill="#00f" height="72" rx="4" width="8"/><g fill="#fff" transform="matrix(-1 0 0 1 7 26)"><path d="m3.49804706 5.52441406v-3.16894531l-2.24121094 3.16894531zm.01464844 2.47558594v-1.70898438h-3.06640625v-.859375l3.203125-4.44335937h.7421875v4.53613281h1.03027344v.76660156h-1.03027344v1.70898438z"/><path d="m1.42773456 17.2177734c.05859405.5013046.29133911.8479808.69824219 1.0400391.20833437.0976567.44921738.1464844.72265625.1464844.52083594 0 .90657427-.166014 1.15722656-.4980469.2506523-.3320329.37597656-.6998678.37597656-1.1035156 0-.4882837-.14892429-.8658841-.44677734-1.1328125s-.65510859-.4003907-1.07177734-.4003907c-.30273589 0-.56233616.0585932-.7788086.1757813-.21647243.1171881-.40120366.2799469-.55419922.4882813l-.76171874-.0439454.53222656-3.7646484h3.6328125v.8496094h-2.97363282l-.29785156 1.9433594c.16276123-.1236986.31738208-.2164711.46386719-.2783204.26041797-.1074224.56152173-.1611328.90332031-.1611328.64127925 0 1.18489361.2067037 1.63085938.6201172s.66894531.9374968.66894531 1.5722656c0 .6608106-.20426228 1.2434871-.61279297 1.7480469s-1.06037964.7568359-1.95556641.7568359c-.5696643 0-1.07340275-.1603174-1.51123046-.480957s-.68277969-.8129849-.73486328-1.4770508z"/></g></g></svg>